<svg width="896" height="284" viewBox="0 0 896 284" fill="none" xmlns="http://www.w3.org/2000/svg">
<path d="M643.191 2.08907C644.748 2.09468 646.305 2.09895 647.861 2.10194C651.93 2.11331 655.999 2.14272 660.067 2.17605C664.23 2.20691 668.393 2.22048 672.557 2.23556C680.705 2.2676 688.852 2.31871 697 2.38204C697.033 2.9404 697.066 3.49876 697.1 4.07404C697.792 15.7152 698.494 27.3557 699.211 38.9953C699.306 40.565 699.306 40.565 699.404 42.1665C699.971 51.319 700.701 60.4554 701.469 69.593C704.123 102.472 705.676 135.428 707 168.382C707.347 167.764 707.693 167.146 708.051 166.509C714.424 155.156 720.808 143.821 727.587 132.704C729.333 129.835 731.068 126.96 732.805 124.085C744.467 104.789 756.38 85.6566 768.44 66.6069C771.855 61.2094 775.242 55.7948 778.619 50.374C781.15 46.3141 783.689 42.2591 786.231 38.2058C787.365 36.3964 788.496 34.5856 789.625 32.7732C791.074 30.4493 792.535 28.1334 794 25.8195C794.408 25.16 794.816 24.5005 795.237 23.821C799.317 17.4314 804.33 11.9582 810.938 8.13204C811.71 7.67314 812.482 7.21423 813.277 6.74142C814.176 6.29282 815.074 5.84423 816 5.38204C817.035 4.86505 818.07 4.34805 819.137 3.81539C825.922 1.32096 833.406 2.01567 840.531 2.08907C842.134 2.09468 843.737 2.09894 845.34 2.10194C849.535 2.11333 853.73 2.14275 857.926 2.17605C862.216 2.20687 866.506 2.22047 870.797 2.23556C879.198 2.26762 887.599 2.31875 896 2.38204C895.572 19.1235 894.184 35.6602 892.422 52.309C891.679 59.4127 891.02 66.5249 890.352 73.6359C890.211 75.1259 890.07 76.6158 889.929 78.1056C889.568 81.9294 889.208 85.7532 888.848 89.577C888.466 93.6332 888.083 97.6892 887.7 101.745C886.939 109.81 886.178 117.875 885.419 125.94C884.804 132.461 884.189 138.982 883.574 145.503C883.466 146.646 883.359 147.79 883.248 148.967C882.257 159.476 881.265 169.984 880.273 180.492C880.004 183.343 879.735 186.194 879.466 189.045C879.292 190.882 879.119 192.72 878.945 194.558C878.861 195.452 878.777 196.346 878.69 197.268C878.281 201.601 877.867 205.934 877.442 210.267C876.677 218.086 875.945 225.904 875.332 233.737C875.04 237.424 874.725 241.109 874.407 244.794C874.263 246.534 874.13 248.275 874.008 250.016C873.325 259.777 872.527 267.35 865 274.382C863.886 275.527 863.886 275.527 862.75 276.695C858.453 279.331 853.771 280.809 849 282.382C848.01 282.712 847.02 283.042 846 283.382C844.083 283.471 842.163 283.5 840.243 283.496C839.062 283.496 837.881 283.495 836.665 283.495C835.39 283.49 834.115 283.485 832.801 283.48C831.495 283.478 830.19 283.477 828.845 283.475C825.378 283.472 821.911 283.462 818.444 283.451C814.905 283.44 811.365 283.436 807.826 283.431C800.884 283.42 793.942 283.403 787 283.382C787.585 275.451 788.241 267.535 789.051 259.624C789.149 258.651 789.248 257.678 789.35 256.675C789.668 253.535 789.99 250.396 790.312 247.257C790.424 246.167 790.535 245.078 790.65 243.955C792.142 229.384 793.708 214.825 795.401 200.276C796.931 187.103 798.39 173.922 799.834 160.739C800.11 158.221 800.387 155.702 800.665 153.184C801.055 149.648 801.442 146.111 801.828 142.573C801.947 141.502 802.065 140.431 802.187 139.327C802.295 138.338 802.402 137.349 802.513 136.33C802.607 135.467 802.702 134.604 802.799 133.716C802.98 131.611 803 129.494 803 127.382C802.665 127.957 802.33 128.532 801.985 129.125C798.012 135.942 794.036 142.757 790.058 149.571C789.356 150.772 788.655 151.973 787.954 153.174C779.65 167.399 771.308 181.599 762.809 195.709C758.871 202.251 754.962 208.81 751.075 215.382C747.842 220.846 744.599 226.305 741.348 231.758C739.576 234.731 737.809 237.706 736.051 240.688C723.311 262.279 710.35 274.265 686 282.382C684.364 282.474 682.724 282.51 681.085 282.511C680.088 282.515 679.09 282.518 678.062 282.521C676.987 282.519 675.912 282.517 674.805 282.515C673.702 282.516 672.598 282.517 671.462 282.518C669.13 282.518 666.798 282.517 664.466 282.512C660.882 282.507 657.299 282.512 653.715 282.519C651.453 282.518 649.191 282.517 646.93 282.515C645.851 282.517 644.771 282.519 643.66 282.521C642.668 282.518 641.677 282.515 640.656 282.511C639.779 282.511 638.902 282.51 637.998 282.509C636 282.382 636 282.382 635 281.382C634.834 279.966 634.733 278.542 634.659 277.117C634.608 276.2 634.558 275.283 634.506 274.337C634.455 273.326 634.404 272.315 634.352 271.273C634.294 270.219 634.237 269.166 634.179 268.08C634.055 265.795 633.934 263.51 633.814 261.224C633.496 255.168 633.162 249.113 632.828 243.058C632.76 241.827 632.693 240.595 632.623 239.327C631.864 225.695 630.949 212.075 630.002 198.455C628.751 180.356 627.897 162.268 627.438 144.132C627.394 142.489 627.35 140.846 627.307 139.202C627.202 135.262 627.1 131.322 627 127.382C624.874 132.194 622.749 137.007 620.625 141.82C620.295 142.567 619.965 143.315 619.625 144.086C614.389 155.948 609.173 167.818 603.965 179.693C590.839 209.62 590.839 209.62 586.192 219.939C583.717 225.447 581.334 230.976 579.059 236.57C573.564 249.886 568.614 260.556 557 269.382C556.108 270.077 555.216 270.772 554.297 271.488C542.402 279.839 528.591 283.563 514.227 283.48C513.303 283.478 512.379 283.477 511.427 283.475C508.493 283.47 505.559 283.457 502.625 283.445C500.629 283.44 498.633 283.435 496.637 283.431C491.758 283.42 486.879 283.403 482 283.382C482.649 278.99 484.273 275.243 486.141 271.257C486.618 270.222 486.618 270.222 487.104 269.166C487.79 267.679 488.478 266.194 489.168 264.71C490.642 261.539 492.104 258.362 493.567 255.186C494.313 253.565 495.06 251.945 495.808 250.325C499.025 243.345 502.181 236.339 505.312 229.32C509.011 221.039 512.726 212.767 516.469 204.507C516.861 203.642 517.253 202.776 517.657 201.884C518.466 200.1 519.275 198.316 520.083 196.532C526.487 182.402 532.849 168.256 539.125 154.07C544.827 141.182 550.66 128.361 556.569 115.567C561.897 104.028 567.112 92.4441 572.25 80.8195C578.102 67.5828 584.08 54.4166 590.23 41.3156C591.899 37.7618 593.537 34.2002 595.113 30.6047C600.818 17.6492 608.2 9.11911 621.678 3.80392C628.658 1.53546 635.941 2.01191 643.191 2.08907Z" fill="#161616"/>
<path d="M325.004 1.99135C326.323 1.99701 327.642 2.00267 329.001 2.0085C332.478 2.02365 335.955 2.06283 339.432 2.10732C342.991 2.14851 346.551 2.16656 350.111 2.18666C357.075 2.22934 364.037 2.29745 371 2.38197C372.125 16.2075 373.247 30.0333 374.365 43.8594C374.884 50.2849 375.405 56.7104 375.928 63.1356C378.475 94.407 380.864 125.679 382.848 156.991C383.109 161.1 383.377 165.209 383.644 169.318C384.1 176.339 384.552 183.36 385 190.382C385.564 189.48 385.564 189.48 386.139 188.56C392.029 179.136 397.919 169.712 403.809 160.288C404.419 159.311 405.03 158.334 405.659 157.328C406.893 155.353 408.128 153.378 409.363 151.403C412.543 146.317 415.72 141.228 418.891 136.136C424.834 126.597 430.806 117.084 436.945 107.67C441.05 101.354 445.001 94.947 448.951 88.5341C454.085 80.213 459.332 71.9665 464.594 63.7257C467.274 59.5262 469.937 55.3155 472.589 51.0983C477.316 43.5871 482.074 36.0956 486.875 28.632C487.66 27.3991 487.66 27.3991 488.461 26.1413C496.882 13.1138 505.524 5.82306 521 2.38197C526.169 1.89328 531.302 1.91068 536.488 1.99135C537.927 1.99883 539.366 2.00452 540.804 2.0085C544.545 2.02359 548.284 2.06272 552.024 2.10732C555.859 2.14864 559.694 2.16659 563.529 2.18666C571.02 2.22923 578.51 2.29727 586 2.38197C584.552 6.12665 582.902 9.28936 580.684 12.6437C580.01 13.667 579.337 14.6904 578.644 15.7448C577.916 16.8419 577.188 17.9391 576.438 19.0695C575.674 20.2269 574.912 21.3846 574.149 22.5426C572.563 24.9521 570.974 27.3601 569.384 29.7672C565.654 35.4181 561.953 41.0883 558.25 46.757C557.543 47.8389 556.835 48.9208 556.106 50.0355C550.241 59.006 544.396 67.9893 538.561 76.9787C535.875 81.1141 533.188 85.248 530.5 89.382C527.273 94.3464 524.046 99.311 520.82 104.277C514.419 114.129 508.007 123.975 501.586 133.815C497.552 140 493.523 146.189 489.5 152.382C484.841 159.554 480.173 166.72 475.5 173.882C467.328 186.408 459.161 198.936 451.047 211.499C446.174 219.042 441.282 226.572 436.376 234.093C435.283 235.769 434.192 237.446 433.101 239.123C419.22 260.379 406.856 274.259 382.178 281.95C379.282 282.524 376.531 282.501 373.579 282.496C372.278 282.495 370.977 282.495 369.637 282.495C368.221 282.49 366.806 282.485 365.391 282.48C363.939 282.478 362.487 282.476 361.036 282.475C357.222 282.472 353.408 282.462 349.594 282.451C345.699 282.44 341.805 282.436 337.91 282.431C330.273 282.42 322.637 282.403 315 282.382C314.864 281.089 314.728 279.796 314.589 278.464C313.497 268.081 312.4 257.698 311.293 247.316C311.187 246.311 311.08 245.306 310.97 244.271C310.107 236.193 309.136 228.13 308.135 220.067C306.474 206.621 305.222 193.123 303.889 179.64C302.758 168.29 301.487 156.969 300.044 145.654C299.112 138.342 298.286 131.03 297.562 123.694C297.315 121.244 297.066 118.793 296.816 116.343C296.621 114.426 296.621 114.426 296.422 112.471C295.728 105.712 294.992 98.9567 294.258 92.2016C294.001 89.8249 293.745 87.4479 293.49 85.0709C292.715 77.8792 291.926 70.6905 291.078 63.507C289.863 53.083 288.725 42.6961 288.562 32.1945C288.54 31.4229 288.518 30.6513 288.495 29.8563C288.522 22.9877 290.677 17.2117 295.043 11.8937C295.751 11.2917 296.458 10.6897 297.188 10.0695C297.882 9.45459 298.577 8.83971 299.293 8.20619C307.737 2.51577 314.918 1.82687 325.004 1.99135Z" fill="#161616"/>
<path d="M126.781 0.0810043C128.603 0.0771063 130.425 0.0727694 132.247 0.0680191C136.057 0.0605896 139.866 0.0608226 143.675 0.0661117C148.501 0.0718771 153.327 0.0550305 158.153 0.0317671C161.916 0.0168601 165.679 0.0161812 169.442 0.0192768C171.219 0.0187712 172.995 0.0136813 174.771 0.00346488C190.812 -0.0774401 206.732 1.23234 221.938 6.69429C222.814 6.99987 223.691 7.30546 224.595 7.62031C242.836 14.1248 258.13 24.1562 266.763 42.0324C274.269 58.6729 272.479 79.3884 267 96.3818C266.638 97.56 266.276 98.7382 265.902 99.9521C255.172 132.47 229.29 159.36 199 174.632C168.187 189.704 137.945 193.85 104 193.382C103.885 194.008 103.77 194.635 103.652 195.28C91.4344 261.083 91.4344 261.083 67.8711 277.761C59.6872 282.382 53.0229 282.794 43.75 282.675C42.4961 282.671 41.2423 282.666 39.9504 282.662C36.6426 282.648 33.3353 282.621 30.0276 282.588C26.6422 282.557 23.2567 282.543 19.8711 282.528C13.2472 282.495 6.62365 282.445 0 282.382C0.307647 280.808 0.617285 279.235 0.927734 277.662C1.09995 276.786 1.27216 275.91 1.44958 275.008C2.29415 270.979 3.3883 267.031 4.5 263.069C5.03061 261.151 5.5605 259.234 6.08984 257.315C6.38746 256.239 6.68507 255.162 6.9917 254.053C8.15336 249.823 9.29918 245.59 10.4414 241.354C10.6563 240.558 10.8713 239.761 11.0927 238.94C11.9593 235.726 12.8254 232.512 13.6909 229.298C16.165 220.115 18.6704 210.94 21.224 201.778C23.0214 195.323 24.7691 188.855 26.5 182.382C28.6573 174.34 30.842 166.307 33.0859 158.288C34.9339 151.664 36.7177 145.024 38.5 138.382C40.4702 131.04 42.4516 123.702 44.5 116.382C46.3957 109.601 48.2379 102.807 50.0625 96.0068C51.3731 91.1313 52.6858 86.2563 54 81.3818C54.2266 80.5412 54.4532 79.7005 54.6866 78.8344C56.2484 73.043 57.8151 67.2529 59.386 61.464C59.915 59.5122 60.4428 57.5601 60.9693 55.6077C71.6845 15.8842 71.6845 15.8842 88.7031 5.77632C100.871 -0.151318 113.555 0.0691186 126.781 0.0810043Z" fill="#161616"/>
<path d="M140 60.382C171.012 59.4466 171.012 59.4466 181.062 67.257C185.578 71.7069 187.171 75.6149 187.438 81.9445C187.13 92.7218 183.596 101.942 177 110.382C176.56 110.996 176.121 111.609 175.668 112.241C165.645 125.297 147.568 130.261 132 132.382C128.314 132.577 124.685 132.589 121 132.382C121.649 125.313 123.384 118.717 125.273 111.886C125.598 110.698 125.922 109.51 126.257 108.286C126.942 105.781 127.629 103.277 128.319 100.774C129.37 96.9623 130.412 93.148 131.453 89.3332C132.122 86.8923 132.791 84.4516 133.461 82.0109C133.77 80.8794 134.08 79.7479 134.399 78.5821C136.094 72.4465 137.926 66.4004 140 60.382Z" fill="#FCFCFC"/>
<path d="M526 183.382C527.461 186.029 528 187.276 528 190.382C527.34 190.382 526.68 190.382 526 190.382C526 191.042 526 191.702 526 192.382C525.34 192.382 524.68 192.382 524 192.382C523.34 193.702 522.68 195.022 522 196.382C521.67 195.722 521.34 195.062 521 194.382C521.996 191.78 521.996 191.78 523.438 188.757C523.911 187.754 524.384 186.751 524.871 185.718C525.244 184.947 525.616 184.176 526 183.382Z" fill="#252525"/>
<path d="M557 114.382C557.99 114.712 558.98 115.042 560 115.382C559.34 116.042 558.68 116.702 558 117.382C557.814 118.867 557.814 118.867 557.625 120.382C557.419 121.372 557.213 122.362 557 123.382C554.961 124.569 554.961 124.569 553 125.382C553.477 123.923 553.957 122.465 554.438 121.007C554.704 120.195 554.971 119.383 555.246 118.546C556 116.382 556 116.382 557 114.382Z" fill="#282828"/>
<path d="M304 5.38184C304 6.37184 304 7.36184 304 8.38184C303.01 9.04184 302.02 9.70184 301 10.3818C301 11.3718 301 12.3618 301 13.3818C299.35 13.0518 297.7 12.7218 296 12.3818C298.578 9.73432 300.916 7.43752 304 5.38184Z" fill="#242424"/>
<path d="M430 236.382C430.33 237.042 430.66 237.702 431 238.382C431.66 238.712 432.32 239.042 433 239.382C432.01 240.867 432.01 240.867 431 242.382C429.68 241.722 428.36 241.062 427 240.382C427.99 239.062 428.98 237.742 430 236.382Z" fill="#1F1F1F"/>
<path d="M743 108.382C743.99 108.712 744.98 109.042 746 109.382C744.35 111.032 742.7 112.682 741 114.382C740.67 113.722 740.34 113.062 740 112.382C740.99 111.062 741.98 109.742 743 108.382Z" fill="#1F1F1F"/>
</svg>
