<?xml version="1.0" encoding="UTF-8"?>
<svg version="1.1" xmlns="http://www.w3.org/2000/svg" width="905" height="291">
<path d="M0 0 C298.65 0 597.3 0 905 0 C905 96.03 905 192.06 905 291 C606.35 291 307.7 291 0 291 C0 194.97 0 98.94 0 0 Z " fill="#FDFDFD" transform="translate(0,0)"/>
<path d="M0 0 C1.55654997 0.00560506 3.11310529 0.00987085 4.66966248 0.01286316 C8.73856582 0.02424047 12.8071407 0.05364499 16.87591553 0.0869751 C21.03897663 0.11783069 25.20209154 0.13140138 29.36523438 0.14648438 C37.51317047 0.17852269 45.66084109 0.22963122 53.80859375 0.29296875 C53.84173676 0.85132919 53.87487976 1.40968964 53.9090271 1.98497009 C54.60101981 13.62609227 55.30239365 25.26664868 56.01953125 36.90625 C56.11504776 38.47595802 56.11504776 38.47595802 56.2124939 40.07737732 C56.77954927 49.22990787 57.50963476 58.36631633 58.27734375 67.50390625 C60.93168149 100.38244125 62.48470959 133.33847342 63.80859375 166.29296875 C64.155271 165.67478271 64.50194824 165.05659668 64.85913086 164.41967773 C71.23274597 153.06644534 77.61642227 141.7322749 84.39550781 130.61523438 C86.14133554 127.74614085 87.87703108 124.87099315 89.61328125 121.99609375 C101.27603529 102.70034313 113.18836935 83.56752318 125.24902344 64.51782227 C128.66372515 59.12033534 132.05024155 53.70575388 135.42773438 48.28491211 C137.95898211 44.22505785 140.49791141 40.1700545 143.03955078 36.11669922 C144.17311452 34.30731497 145.30450193 32.49656435 146.43310547 30.68408203 C147.88241687 28.36027401 149.34353681 26.04437175 150.80859375 23.73046875 C151.2166626 23.07095215 151.62473145 22.41143555 152.04516602 21.73193359 C156.12601637 15.34227931 161.1382819 9.8691227 167.74609375 6.04296875 C168.51824219 5.5840625 169.29039062 5.12515625 170.0859375 4.65234375 C170.98441406 4.20375 171.88289063 3.75515625 172.80859375 3.29296875 C173.8437915 2.77597412 174.87898926 2.25897949 175.94555664 1.72631836 C182.73023082 -0.76811418 190.21436951 -0.07340147 197.33984375 0 C198.94266358 0.00560313 200.5454886 0.00986984 202.14831543 0.01286316 C206.34381579 0.0242556 210.53899898 0.0536737 214.734375 0.0869751 C219.02469595 0.11779754 223.31506872 0.13139438 227.60546875 0.14648438 C236.00665511 0.17854951 244.40758485 0.22967702 252.80859375 0.29296875 C252.38023651 17.03440031 250.99249081 33.5711113 249.23083496 50.21990967 C248.48739116 57.32366329 247.8288897 64.43578232 247.16015625 71.546875 C247.01948009 73.0367799 246.87873772 74.52667855 246.7379303 76.01657104 C246.37675748 79.84029435 246.01656895 83.66410974 245.65658951 87.48794556 C245.27454182 91.54410686 244.89148526 95.6001729 244.50854492 99.65625 C243.74727138 107.7212182 242.98701283 115.78628177 242.22711182 123.85137939 C241.61270065 130.37230726 240.99775613 136.89318483 240.3828125 143.4140625 C240.27500961 144.55728973 240.16720673 145.70051697 240.05613708 146.87838745 C239.06519789 157.38673782 238.07374843 167.89503992 237.0814209 178.40325928 C236.81227155 181.25401446 236.54333541 184.10478971 236.27441406 186.95556641 C236.10091738 188.79329483 235.92741485 190.6310227 235.75390625 192.46875 C235.66960358 193.36303207 235.5853009 194.25731415 235.4984436 195.17869568 C235.08914439 199.51230237 234.67519924 203.84536506 234.25048828 208.17749023 C233.48609039 215.99703809 232.75354816 223.81465369 232.14097595 231.64778137 C231.84907549 235.33511436 231.53377796 239.0202656 231.21560669 242.70541382 C231.07150237 244.44510336 230.93822989 246.18573096 230.81686401 247.92715454 C230.13328734 257.68763498 229.33598909 265.26066679 221.80859375 272.29296875 C220.69484375 273.43765625 220.69484375 273.43765625 219.55859375 274.60546875 C215.26168058 277.24221092 210.57981366 278.71979562 205.80859375 280.29296875 C204.81859375 280.62296875 203.82859375 280.95296875 202.80859375 281.29296875 C200.89140527 281.38162051 198.97123462 281.41058632 197.05200195 281.40649414 C195.87100418 281.40641861 194.69000641 281.40634308 193.47322083 281.40626526 C192.1981517 281.40110397 190.92308258 281.39594269 189.609375 281.390625 C188.30405319 281.38921005 186.99873138 281.3877951 185.65385437 281.38633728 C182.18669719 281.38252255 178.71958201 281.37270119 175.25244141 281.3616333 C171.71322193 281.35139673 168.17399565 281.34683485 164.63476562 281.34179688 C157.6926911 281.33107798 150.75064444 281.31401409 143.80859375 281.29296875 C144.39341012 273.36214216 145.04928651 265.44611399 145.859375 257.53515625 C145.95795807 256.56191406 146.05654114 255.58867187 146.15811157 254.5859375 C146.47704481 251.44640043 146.79878331 248.3071608 147.12109375 245.16796875 C147.23252716 244.07840881 147.34396057 242.98884888 147.45877075 241.86627197 C148.95084231 227.29519208 150.51659477 212.73579553 152.20922852 198.18676758 C153.73994296 185.01357961 155.19852451 171.83267034 156.64260864 158.64971924 C156.91869296 156.13152077 157.19560199 153.61341257 157.47335815 151.09539795 C157.86331524 147.55862427 158.25041569 144.02154941 158.63671875 140.484375 C158.75525711 139.41313889 158.87379547 138.34190277 158.9959259 137.23820496 C159.10329575 136.24895523 159.21066559 135.25970551 159.32128906 134.24047852 C159.4158136 133.37785904 159.51033813 132.51523956 159.60772705 131.6264801 C159.78887632 129.52203037 159.80859375 127.40520068 159.80859375 125.29296875 C159.47351807 125.86813232 159.13844238 126.4432959 158.79321289 127.03588867 C154.82090209 133.85311535 150.84484026 140.66814872 146.86621094 147.48168945 C146.16496092 148.68265295 145.46378819 149.88366156 144.76269531 151.0847168 C136.45853965 165.31014716 128.11696518 179.50965228 119.61791992 193.61987305 C115.67945738 200.16187533 111.7709065 206.72070266 107.88313293 213.29289246 C104.65048556 218.75731454 101.40785176 224.21570968 98.15690613 229.66926575 C96.38494633 232.64211244 94.61743398 235.61723627 92.85986328 238.59863281 C80.11920631 260.18956412 67.15906937 272.17614354 42.80859375 280.29296875 C41.17244094 280.38521725 39.53279359 280.4208793 37.89404297 280.42236328 C36.89645966 280.42551544 35.89887634 280.4286676 34.87106323 280.43191528 C33.79599518 280.42989105 32.72092712 280.42786682 31.61328125 280.42578125 C30.51009552 280.42673798 29.40690979 280.4276947 28.27029419 280.42868042 C25.93849633 280.42936109 23.60669657 280.42751466 21.27490234 280.42333984 C17.69103786 280.41797988 14.10729813 280.4232939 10.5234375 280.4296875 C8.26171847 280.4290269 5.99999952 280.42774611 3.73828125 280.42578125 C2.65916473 280.42780548 1.58004822 280.42982971 0.4682312 280.43191528 C-0.52304779 280.42876312 -1.51432678 280.42561096 -2.53564453 280.42236328 C-3.41261993 280.42156769 -4.28959534 280.42077209 -5.19314575 280.41995239 C-7.19140625 280.29296875 -7.19140625 280.29296875 -8.19140625 279.29296875 C-8.35705549 277.87652717 -8.45823591 276.45246894 -8.53271484 275.02832031 C-8.58312927 274.11089554 -8.6335437 273.19347076 -8.68548584 272.24824524 C-8.73642395 271.23691025 -8.78736206 270.22557526 -8.83984375 269.18359375 C-8.89690491 268.13016281 -8.95396606 267.07673187 -9.01275635 265.99137878 C-9.13632736 263.706096 -9.25790503 261.42070478 -9.37774658 259.13522339 C-9.69580173 253.07915905 -10.02910044 247.023943 -10.36328125 240.96875 C-10.43104767 239.73749893 -10.49881409 238.50624786 -10.56863403 237.23768616 C-11.32715098 223.60604497 -12.24234168 209.98589703 -13.18896484 196.36621094 C-14.44073627 178.26712774 -15.29430895 160.17924102 -15.75390625 142.04296875 C-15.79731184 140.39973391 -15.84093112 138.7565047 -15.88476562 137.11328125 C-15.98942131 133.17323705 -16.09125995 129.23313004 -16.19140625 125.29296875 C-18.31715058 130.1051403 -20.44205347 134.91768277 -22.56640625 139.73046875 C-22.89653717 140.47837677 -23.22666809 141.22628479 -23.56680298 141.99685669 C-28.80203326 153.85915103 -34.01889055 165.72942088 -39.22680664 177.60372925 C-52.35285705 207.53058179 -52.35285705 207.53058179 -56.99902344 217.84985352 C-59.47480288 223.35764669 -61.85763525 228.88648243 -64.1328125 234.48046875 C-69.62775569 247.79648493 -74.57733029 258.46684883 -86.19140625 267.29296875 C-87.0834375 267.98777344 -87.97546875 268.68257813 -88.89453125 269.3984375 C-100.7890102 277.74950132 -114.60007433 281.47414205 -128.96484375 281.390625 C-129.88858795 281.38921005 -130.81233215 281.3877951 -131.7640686 281.38633728 C-134.69821487 281.38076484 -137.63228326 281.36821744 -140.56640625 281.35546875 C-142.56249889 281.35045019 -144.55859274 281.3458879 -146.5546875 281.34179688 C-151.4336235 281.33080444 -156.3125017 281.31355885 -161.19140625 281.29296875 C-160.54218211 276.90078998 -158.91868907 273.15366313 -157.05078125 269.16796875 C-156.57371986 268.13270302 -156.57371986 268.13270302 -156.08702087 267.07652283 C-155.40149451 265.5902233 -154.7135823 264.10502232 -154.02352905 262.62081909 C-152.54935388 259.44959012 -151.08706783 256.27292947 -149.62431335 253.09642029 C-148.87804558 251.47585725 -148.13122666 249.85554791 -147.38386536 248.23548889 C-144.16596646 241.25564266 -141.01040325 234.24955145 -137.87890625 227.23046875 C-134.18047861 218.95031102 -130.46574097 210.67803907 -126.72265625 202.41796875 C-126.33043381 201.55242371 -125.93821136 200.68687866 -125.53410339 199.79510498 C-124.72551851 198.01097078 -123.9168989 196.22685232 -123.10824585 194.44274902 C-116.7041083 180.31336123 -110.34267953 166.1671245 -104.06640625 151.98046875 C-98.36472552 139.09303022 -92.53119265 126.27148341 -86.62213135 113.47790527 C-81.29455319 101.93893358 -76.07934121 90.35505632 -70.94140625 78.73046875 C-65.08979555 65.4937772 -59.11111636 52.3275525 -52.9609375 39.2265625 C-51.29266736 35.67271473 -49.65467056 32.11107853 -48.078125 28.515625 C-42.37319589 15.56014144 -34.99143985 7.03004013 -21.51342773 1.71484375 C-14.5337723 -0.55361452 -7.25080791 -0.07715972 0 0 Z " fill="#161616" transform="translate(647.19140625,6.70703125)"/>
<path d="M0 0 C1.82206315 -0.00389805 3.6441254 -0.00823495 5.46618652 -0.01298523 C9.27533925 -0.02041473 13.08439926 -0.02018172 16.89355469 -0.01489258 C21.71967609 -0.00912721 26.54541003 -0.02597381 31.37146759 -0.04923725 C35.13470595 -0.06414422 38.89785488 -0.06482315 42.66111755 -0.06172752 C44.43729921 -0.06223309 46.21348694 -0.06732299 47.98963928 -0.07753944 C64.0305697 -0.15844438 79.95062323 1.15133507 95.15625 6.61328125 C96.03321533 6.91886963 96.91018066 7.22445801 97.8137207 7.53930664 C116.05503213 14.04381645 131.34841608 24.07515718 139.98144531 41.95141602 C147.48749371 58.59189108 145.69759608 79.30737669 140.21875 96.30078125 C139.85652344 97.47898437 139.49429687 98.6571875 139.12109375 99.87109375 C128.39101871 132.38867708 102.50840118 159.2790283 72.21875 174.55078125 C41.40574893 189.62264235 11.16380149 193.76908823 -22.78125 193.30078125 C-22.89605713 193.92718506 -23.01086426 194.55358887 -23.12915039 195.19897461 C-35.3468082 261.00243203 -35.3468082 261.00243203 -58.91015625 277.6796875 C-67.09409758 282.30055233 -73.75835467 282.71285276 -83.03125 282.59375 C-84.28510498 282.58950516 -85.53895996 282.58526031 -86.83081055 282.58088684 C-90.13860787 282.56700294 -93.44595382 282.54012478 -96.75360107 282.5067749 C-100.13906373 282.47589699 -103.52459288 282.46234395 -106.91015625 282.44726562 C-113.53402856 282.41428388 -120.15760242 282.36414962 -126.78125 282.30078125 C-126.47360288 280.72730722 -126.16396539 279.15422229 -125.85351562 277.58129883 C-125.68130493 276.7052449 -125.50909424 275.82919098 -125.33166504 274.92658997 C-124.48709725 270.89749683 -123.39294755 266.95047539 -122.28125 262.98828125 C-121.75063567 261.07049676 -121.22074598 259.15251169 -120.69140625 257.234375 C-120.39379395 256.15784668 -120.09618164 255.08131836 -119.78955078 253.97216797 C-118.62789453 249.7423891 -117.48206993 245.50849714 -116.33984375 241.2734375 C-116.12490265 240.47657028 -115.90996155 239.67970306 -115.68850708 238.85868835 C-114.82198341 235.64504308 -113.95588164 232.43128447 -113.09033203 229.21737671 C-110.61623288 220.03350599 -108.11085648 210.85941887 -105.55723572 201.69732666 C-103.75982624 195.24209026 -102.01212492 188.7741716 -100.28125 182.30078125 C-98.12391155 174.25852171 -95.93928934 166.22550851 -93.6953125 158.20703125 C-91.84736194 151.58320848 -90.06355341 144.94252728 -88.28125 138.30078125 C-86.31106376 130.95889063 -84.32965518 123.62125543 -82.28125 116.30078125 C-80.38556733 109.52004057 -78.54338671 102.72596918 -76.71875 95.92578125 C-75.40813364 91.05027338 -74.09540581 86.17533616 -72.78125 81.30078125 C-72.55465698 80.46015137 -72.32806396 79.61952148 -72.09460449 78.75341797 C-70.53281059 72.96201374 -68.96619501 67.17193627 -67.39529419 61.38299561 C-66.86627291 59.43122631 -66.33847618 57.47912465 -65.8119812 55.52667236 C-55.09674126 15.80319007 -55.09674126 15.80319007 -38.078125 5.6953125 C-25.90996014 -0.2323221 -13.22638518 -0.01188571 0 0 Z " fill="#161616" transform="translate(130.78125,4.69921875)"/>
<path d="M0 0 C1.31902817 0.00565979 2.63805634 0.01131958 3.99705505 0.01715088 C7.47428687 0.03229656 10.95083176 0.07147898 14.42779541 0.1159668 C17.98757642 0.15716159 21.54747032 0.17521309 25.10742188 0.1953125 C32.07059158 0.23798708 39.03330952 0.30610042 45.99609375 0.390625 C47.12158425 14.21611842 48.24341036 28.0419044 49.36102009 41.86803722 C49.88052379 48.29359136 50.40111942 54.71905243 50.92456055 61.14428711 C53.47119527 92.41569171 55.86010284 123.6873151 57.84390831 154.99970436 C58.10547166 159.10901479 58.37278064 163.21795141 58.63989258 167.3269043 C59.09616656 174.34787852 59.54815171 181.36911344 59.99609375 188.390625 C60.55985718 187.48860352 60.55985718 187.48860352 61.13500977 186.56835938 C67.02490234 177.14453125 72.91479492 167.72070312 78.8046875 158.296875 C79.41530029 157.31984619 80.02591309 156.34281738 80.6550293 155.33618164 C81.88939175 153.36129992 83.1239315 151.38652901 84.35864258 149.41186523 C87.53881735 144.3253277 90.71567653 139.23676797 93.88671875 134.14453125 C99.83051007 124.60586186 105.80227129 115.09311498 111.94116211 105.67871094 C116.04562703 99.36275275 119.99688537 92.95564791 123.94750977 86.54272461 C129.08137042 78.22165198 134.32846711 69.97519991 139.58984375 61.734375 C142.27049497 57.5348898 144.93263371 53.32419727 147.58520508 49.10693359 C152.31198168 41.59578403 157.06968372 34.10429144 161.87109375 26.640625 C162.65625366 25.40771729 162.65625366 25.40771729 163.45727539 24.14990234 C171.87769017 11.12249615 180.52058589 3.83170873 195.99609375 0.390625 C201.16553565 -0.09806746 206.29842402 -0.08067292 211.484375 0 C212.92310286 0.00748399 214.36184108 0.01316668 215.80058289 0.01715088 C219.54077577 0.03223806 223.28032189 0.07136715 227.02026367 0.1159668 C230.85521705 0.15729084 234.69027756 0.17524015 238.52539062 0.1953125 C246.01591608 0.23788344 253.50591343 0.30592129 260.99609375 0.390625 C259.54831916 4.1353039 257.89774373 7.29801167 255.6796875 10.65234375 C255.00647461 11.67569824 254.33326172 12.69905273 253.63964844 13.75341797 C252.91165039 14.85057129 252.18365234 15.94772461 251.43359375 17.078125 C250.67042249 18.23552615 249.90773539 19.39324668 249.14550781 20.55126953 C247.55901524 22.96072333 245.97044186 25.36878511 244.38037109 27.77587891 C240.64997041 33.42670933 236.94925371 39.09691891 233.24609375 44.765625 C232.53864014 45.84755127 231.83118652 46.92947754 231.10229492 48.04418945 C225.23736066 57.01460879 219.39253159 65.99797201 213.55664062 74.98730469 C210.87136328 79.12276624 208.18358859 83.25660433 205.49609375 87.390625 C202.26893231 92.35507985 199.0420202 97.31969576 195.81640625 102.28515625 C189.41525805 112.13790397 183.00288032 121.98324721 176.58251953 131.82348633 C172.54764331 138.00860194 168.51900428 144.19772086 164.49609375 150.390625 C159.83728769 157.56243236 155.16927729 164.72817805 150.49609375 171.890625 C142.32435437 184.41629728 134.15679429 196.94476314 126.04296875 209.50805664 C121.17048788 217.05067904 116.27849113 224.58059399 111.37219238 232.10125732 C110.27927099 233.77724783 109.1879501 235.4542817 108.09667969 237.13134766 C94.21629671 258.3875126 81.85208777 272.26750657 57.17401123 279.95848083 C54.27839144 280.53303208 51.52757687 280.50987206 48.57519531 280.50415039 C47.27414856 280.50407486 45.97310181 280.50399933 44.63262939 280.50392151 C43.21732546 280.49881524 41.80202191 280.49359925 40.38671875 280.48828125 C38.93512012 280.48641535 37.48352087 280.48499226 36.03192139 280.48399353 C32.21789806 280.48018188 28.40391302 280.47036315 24.58990479 280.45928955 C20.69535846 280.44904635 16.80080592 280.44448968 12.90625 280.43945312 C5.26951382 280.42873965 -2.36719084 280.41167949 -10.00390625 280.390625 C-10.13966064 279.09777588 -10.27541504 277.80492676 -10.4152832 276.47290039 C-11.50683074 266.08926682 -12.6042598 255.70625087 -13.7109375 245.32421875 C-13.8173909 244.31939957 -13.9238443 243.31458038 -14.03352356 242.27931213 C-14.89685223 234.20122108 -15.8681429 226.13821456 -16.86872864 218.07611084 C-18.53033377 204.62957896 -19.78231239 191.13117883 -21.11523438 177.64892578 C-22.24580515 166.29821821 -23.51707877 154.97763622 -24.96009827 143.66226196 C-25.89183584 136.35046699 -26.71779782 129.03876237 -27.44140625 121.703125 C-27.68929716 119.2525224 -27.93803946 116.80200582 -28.1875 114.3515625 C-28.38255127 112.4348877 -28.38255127 112.4348877 -28.58154297 110.47949219 C-29.27563257 103.72018107 -30.0123038 96.96539632 -30.74575806 90.21026611 C-31.0033219 87.8335173 -31.25908606 85.45658085 -31.5144043 83.07958984 C-32.28842434 75.88781875 -33.07828754 68.69914308 -33.92578125 61.515625 C-35.14114981 51.0916358 -36.27882158 40.70470669 -36.44140625 30.203125 C-36.46364258 29.43154053 -36.48587891 28.65995605 -36.50878906 27.86499023 C-36.48140886 20.99636235 -34.32717793 15.22030771 -29.9609375 9.90234375 C-29.25324219 9.30035156 -28.54554688 8.69835937 -27.81640625 8.078125 C-27.12160156 7.46324219 -26.42679687 6.84835938 -25.7109375 6.21484375 C-17.26669418 0.52442293 -10.08625818 -0.16448366 0 0 Z " fill="#161616" transform="translate(329.00390625,6.609375)"/>
<path d="M0 0 C31.01176184 -0.93538957 31.01176184 -0.93538957 41.0625 6.875 C45.57849394 11.32490623 47.17133814 15.23283833 47.4375 21.5625 C47.12996085 32.33974169 43.5957453 41.56010425 37 50 C36.56042969 50.61359375 36.12085938 51.2271875 35.66796875 51.859375 C25.64542522 64.91467666 7.56799074 69.87938721 -8 72 C-11.68649627 72.1951425 -15.31481074 72.20686094 -19 72 C-18.35125468 64.93082066 -16.61604883 58.33504903 -14.7265625 51.50390625 C-14.40215179 50.31578842 -14.07774109 49.12767059 -13.74349976 47.90354919 C-13.05848943 45.39909776 -12.37082379 42.89537127 -11.68066406 40.39233398 C-10.6298996 36.5802752 -9.58769555 32.76595627 -8.546875 28.95117188 C-7.87810777 26.51027863 -7.20885302 24.0695189 -6.5390625 21.62890625 C-6.22957672 20.49739639 -5.92009094 19.36588654 -5.60122681 18.2000885 C-3.90633145 12.0644661 -2.07408733 6.01833778 0 0 Z " fill="#FCFCFC" transform="translate(144,65)"/>
<path d="M0 0 C1.4606285 2.64738916 2 3.89448334 2 7 C1.34 7 0.68 7 0 7 C0 7.66 0 8.32 0 9 C-0.66 9 -1.32 9 -2 9 C-2.66 10.32 -3.32 11.64 -4 13 C-4.33 12.34 -4.66 11.68 -5 11 C-4.00390625 8.3984375 -4.00390625 8.3984375 -2.5625 5.375 C-2.08941406 4.37210938 -1.61632812 3.36921875 -1.12890625 2.3359375 C-0.75636719 1.56507813 -0.38382813 0.79421875 0 0 Z " fill="#252525" transform="translate(530,188)"/>
<path d="M0 0 C0.99 0.33 1.98 0.66 3 1 C2.34 1.66 1.68 2.32 1 3 C0.814375 4.485 0.814375 4.485 0.625 6 C0.41875 6.99 0.2125 7.98 0 9 C-2.0390625 10.1875 -2.0390625 10.1875 -4 11 C-3.52269162 9.5410574 -3.04308958 8.08286504 -2.5625 6.625 C-2.29566406 5.81289062 -2.02882813 5.00078125 -1.75390625 4.1640625 C-1 2 -1 2 0 0 Z " fill="#282828" transform="translate(561,119)"/>
<path d="M0 0 C0 0.99 0 1.98 0 3 C-0.99 3.66 -1.98 4.32 -3 5 C-3 5.99 -3 6.98 -3 8 C-4.65 7.67 -6.3 7.34 -8 7 C-5.42215154 4.35247996 -3.08351902 2.05567935 0 0 Z " fill="#242424" transform="translate(308,10)"/>
<path d="M0 0 C0.33 0.66 0.66 1.32 1 2 C1.66 2.33 2.32 2.66 3 3 C2.01 4.485 2.01 4.485 1 6 C-0.32 5.34 -1.64 4.68 -3 4 C-2.01 2.68 -1.02 1.36 0 0 Z " fill="#1F1F1F" transform="translate(434,241)"/>
<path d="M0 0 C0.99 0.33 1.98 0.66 3 1 C1.35 2.65 -0.3 4.3 -2 6 C-2.33 5.34 -2.66 4.68 -3 4 C-2.01 2.68 -1.02 1.36 0 0 Z " fill="#1F1F1F" transform="translate(747,113)"/>
</svg>
